<?xml version="1.0" encoding="utf-8"?>
<!-- Generator: Adobe Illustrator 25.2.0, SVG Export Plug-In . SVG Version: 6.00 Build 0)  -->
<svg version="1.1" id="Layer_1" xmlns="http://www.w3.org/2000/svg" xmlns:xlink="http://www.w3.org/1999/xlink" x="0px" y="0px"
	 viewBox="0 0 1200 1200" style="enable-background:new 0 0 1200 1200;" xml:space="preserve">
<style type="text/css">
	.st0{fill:#999999;}
	.st1{fill:#B91800;}
	.st2{fill:#FFFFFF;}
	.st3{fill:#60CA9A;}
	.st4{fill:#FF7A17;}
</style>
<circle class="st0" cx="898.3" cy="887.6" r="265"/>
<circle class="st1" cx="301.7" cy="887.6" r="265"/>
<circle class="st2" cx="898.3" cy="887.6" r="207.6"/>
<circle class="st2" cx="301.7" cy="887.6" r="207.6"/>
<circle class="st3" cx="301.7" cy="312.4" r="265"/>
<circle class="st2" cx="301.7" cy="312.4" r="207.6"/>
<path class="st3" d="M415.2,225.9L415.2,225.9c-14.8-14.8-38.8-14.8-53.6,0l-92.6,92.6l-27.2-27.2c-14.8-14.8-38.8-14.8-53.6,0l0,0
	c-14.8,14.8-14.8,38.8,0,53.6l27.2,27.2l0,0l53.6,53.6l0,0l0,0l53.6-53.6l0,0l92.6-92.6C430,264.7,430,240.7,415.2,225.9z"/>
<circle class="st4" cx="898.3" cy="312.4" r="265"/>
<circle class="st2" cx="898.3" cy="312.4" r="207.6"/>
<path class="st4" d="M984.8,398.9L984.8,398.9c-14.8,14.8-38.8,14.8-53.6,0L811.8,279.5c-14.8-14.8-14.8-38.8,0-53.6l0,0
	c14.8-14.8,38.8-14.8,53.6,0l119.4,119.4C999.6,360.1,999.6,384.1,984.8,398.9z"/>
<path class="st4" d="M811.8,398.9L811.8,398.9c-14.8-14.8-14.8-38.8,0-53.6l119.4-119.4c14.8-14.8,38.8-14.8,53.6,0v0
	c14.8,14.8,14.8,38.8,0,53.6L865.4,398.9C850.6,413.7,826.6,413.7,811.8,398.9z"/>
<path class="st1" d="M179.3,887.6L179.3,887.6c0-20.9,17-37.9,37.9-37.9h168.9c20.9,0,37.9,17,37.9,37.9v0c0,20.9-17,37.9-37.9,37.9
	H217.2C196.3,925.5,179.3,908.5,179.3,887.6z"/>
<path class="st0" d="M898.3,906.9L898.3,906.9c-20.9,0-37.9-17-37.9-37.9v-65.9c0-20.9,17-37.9,37.9-37.9h0
	c20.9,0,37.9,17,37.9,37.9V869C936.2,890,919.3,906.9,898.3,906.9z"/>
<path class="st0" d="M901,1009.9h-5.4c-19.4,0-35.2-15.8-35.2-35.2v0c0-19.4,15.8-35.2,35.2-35.2h5.4c19.4,0,35.2,15.8,35.2,35.2v0
	C936.2,994.2,920.5,1009.9,901,1009.9z"/>
</svg>
